<!--
  Copyright (c) Tibor Völcker <tibor.voelcker@hotmail.de>
  Created on 08.04.2023
-->
<svg width="170" height="80" viewBox="0 0 170 80" fill="none" xmlns="http://www.w3.org/2000/svg">
<g clip-path="url(#clip0_10_296)">
<path d="M170 27.2C170 -12.7999 113.333 -6.39992 113.333 35.2001L141.667 27.2L113.333 52.8001C113.333 92.8001 170 86.4001 170 44.8001L141.667 52.8001L170 27.2Z" fill="#FFCC00"/>
<path d="M108.667 79.6374L52 79.6374V60.4373C89.7778 60.4374 86 60.4374 108.667 79.6374Z" fill="#E53B39"/>
<path d="M80.3333 26.8372L52 57.2373C82.2222 57.2373 84.1111 47.6372 108.667 26.8372C108.667 -13.1627 52 -6.76271 52 34.8373L80.3333 26.8372Z" fill="#E53B39"/>
<path d="M3.10739e-05 36.8V80.0001C11.3333 80.0001 15.1111 62.4 15.1111 51.2C26.4444 51.2 34 44.8 37.7778 36.8H3.10739e-05Z" fill="#42B4D0"/>
<path d="M3.10739e-05 0L0 25.6C37.7778 25.6 56.6667 12.8 56.6667 0H3.10739e-05Z" fill="#42B4D0"/>
</g>
<defs>
<clipPath id="clip0_10_296">
<rect width="170" height="80" fill="white"/>
</clipPath>
</defs>
</svg>
